<svg width="32" height="17" viewBox="0 0 32 17" fill="none" xmlns="http://www.w3.org/2000/svg">
<path fill-rule="evenodd" clip-rule="evenodd" d="M14.4919 0.636825C14.8919 0.229066 15.4344 0 16 0C16.5656 0 17.1081 0.229066 17.5081 0.636825L31.6872 15.0922C31.8875 15.2964 32 15.5734 32 15.8622C32 16.151 31.8875 16.4279 31.6872 16.6321C31.4869 16.8364 31.2153 16.9511 30.9321 16.9511C30.6488 16.9511 30.3772 16.8364 30.1769 16.6321L16 2.17459L1.82306 16.6321C1.62279 16.8364 1.35116 16.9511 1.06792 16.9511C0.784693 16.9511 0.513062 16.8364 0.312788 16.6321C0.112513 16.4279 0 16.151 0 15.8622C0 15.5734 0.112513 15.2964 0.312788 15.0922L14.4919 0.636825Z" fill="#F5F9F9"/>
</svg>
